<svg xmlns="http://www.w3.org/2000/svg" version="1.1" xmlns:xlink="http://www.w3.org/1999/xlink" xmlns:svgjs="http://svgjs.com/svgjs" x="0" y="0" viewBox="0 0 512 512" style="enable-background:new 0 0 512 512" xml:space="preserve" class=""><g><path fill="#f6a96c" d="M65.828 280.888h380.344c2.922 0 5.767.326 8.511.927V161.306c0-19.758-16.017-35.775-35.776-35.775H93.093c-19.758 0-35.776 16.017-35.776 35.775v120.509a39.727 39.727 0 0 1 8.511-.927z" data-original="#f6a96c" class=""/><path fill="#ea9b58" d="M418.907 125.531h-41.683c19.758 0 35.776 16.017 35.776 35.775v119.582h33.172c2.922 0 5.767.326 8.511.927V161.306c0-19.758-16.017-35.775-35.776-35.775z" data-original="#ea9b58"/><path fill="#e2dee2" d="M25.083 421.892h46.561v50.231H25.083z" data-original="#e2dee2"/><path fill="#e2dee2" d="M25.083 421.893h46.561v43.732H25.083z" data-original="#e2dee2"/><path fill="#cbc4cc" d="M50.726 421.893h20.917v43.732H50.726z" data-original="#cbc4cc"/><path fill="#e2dee2" d="M440.356 421.893h46.561v43.732h-46.561z" data-original="#e2dee2"/><path fill="#cbc4cc" d="M466 421.893h20.917v43.732H466z" data-original="#cbc4cc"/><path fill="#ffe5c2" d="M504.5 479.624H7.5c-4.143 0-7.5-3.358-7.5-7.5s3.357-7.5 7.5-7.5h497c4.143 0 7.5 3.358 7.5 7.5s-3.357 7.5-7.5 7.5z" data-original="#ffe5c2"/><path fill="#ffffff" d="M419.01 280.888a22.779 22.779 0 0 0 2.266-9.922v-52.384c0-12.643-10.344-22.988-22.988-22.988H298.41c-12.643 0-22.988 10.345-22.988 22.988v52.384c0 3.548.815 6.914 2.266 9.922z" data-original="#ffffff"/><path fill="#f3f0f3" d="M398.288 195.594h-31.276c12.643 0 22.988 10.345 22.988 22.988v52.384c0 3.548-.815 6.914-2.266 9.922h31.276a22.779 22.779 0 0 0 2.266-9.922v-52.384c0-12.643-10.345-22.988-22.988-22.988z" data-original="#f3f0f3"/><path fill="#ffffff" d="M234.312 280.888a22.779 22.779 0 0 0 2.266-9.922v-52.384c0-12.643-10.344-22.988-22.988-22.988h-99.878c-12.643 0-22.988 10.345-22.988 22.988v52.384c0 3.548.815 6.914 2.266 9.922z" data-original="#ffffff"/><path fill="#f3f0f3" d="M213.59 195.594h-31.276c12.643 0 22.988 10.345 22.988 22.988v52.384c0 3.548-.815 6.914-2.266 9.922h31.276a22.779 22.779 0 0 0 2.266-9.922v-52.384c0-12.643-10.344-22.988-22.988-22.988z" data-original="#f3f0f3"/><path fill="#ffe5c2" d="M486.917 343.013v-22.379c0-22.503-18.242-40.746-40.746-40.746H65.828c-22.503 0-40.746 18.242-40.746 40.746v22.379z" data-original="#ffe5c2"/><path fill="#fed2a4" d="M446.172 279.888h-46.083c22.503 0 40.746 18.242 40.746 40.746v22.379h46.083v-22.379c-.001-22.503-18.243-40.746-40.746-40.746z" data-original="#fed2a4"/><path fill="#f6a96c" d="M489.5 422.893h-467c-8.284 0-15-6.716-15-15v-50.88c0-8.284 6.716-15 15-15h467c8.284 0 15 6.716 15 15v50.88c0 8.284-6.716 15-15 15z" data-original="#f6a96c" class=""/><path fill="#ea9b58" d="M489.5 342.013H439c8.284 0 15 6.716 15 15v50.88c0 8.284-6.716 15-15 15h50.5c8.284 0 15-6.716 15-15v-50.88c0-8.284-6.716-15-15-15z" data-original="#ea9b58"/><path fill="#b5adb6" d="M7.5 407.893c0 8.284 6.716 15 15 15h467c8.284 0 15-6.716 15-15v-23.141H7.5z" data-original="#b5adb6"/><path fill="#a79ba7" d="M504.5 407.893v-23.141H454v23.141c0 8.284-6.716 15-15 15h50.5c8.284 0 15-6.716 15-15z" data-original="#a79ba7"/><path fill="#ffe177" d="m157.991 76.36 10.817 19.777c.323.59.808 1.075 1.398 1.398l19.777 10.817c2.439 1.334 2.439 4.837 0 6.17l-19.777 10.817a3.521 3.521 0 0 0-1.398 1.398l-10.817 19.777c-1.334 2.439-4.837 2.439-6.17 0l-10.817-19.777a3.521 3.521 0 0 0-1.398-1.398l-19.777-10.817c-2.439-1.334-2.439-4.837 0-6.17l19.777-10.817a3.521 3.521 0 0 0 1.398-1.398l10.817-19.777c1.334-2.439 4.836-2.439 6.17 0z" data-original="#ffe177"/><path fill="#ffd15b" d="m189.983 108.351-14.348-7.847-19.741 10.797a3.521 3.521 0 0 0-1.398 1.398l-10.584 19.353 7.909 14.462c1.334 2.439 4.837 2.439 6.17 0l10.817-19.777a3.521 3.521 0 0 1 1.398-1.398l19.777-10.817c2.439-1.334 2.439-4.837 0-6.171z" data-original="#ffd15b"/><g fill="#ffd15b"><path d="M236 48.128h-8.252v-8.252c0-4.142-3.357-7.5-7.5-7.5s-7.5 3.358-7.5 7.5v8.252h-8.252c-4.143 0-7.5 3.358-7.5 7.5s3.357 7.5 7.5 7.5h8.252v8.252c0 4.142 3.357 7.5 7.5 7.5s7.5-3.358 7.5-7.5v-8.252H236c4.143 0 7.5-3.358 7.5-7.5s-3.357-7.5-7.5-7.5zM295 82.128h-3.252v-3.252c0-4.142-3.357-7.5-7.5-7.5s-7.5 3.358-7.5 7.5v3.252h-3.252c-4.143 0-7.5 3.358-7.5 7.5s3.357 7.5 7.5 7.5h3.252v3.252c0 4.142 3.357 7.5 7.5 7.5s7.5-3.358 7.5-7.5v-3.252H295c4.143 0 7.5-3.358 7.5-7.5s-3.357-7.5-7.5-7.5z" fill="#ffd15b" data-original="#ffd15b"/></g><path fill="#ffe177" d="m362.16 37.316 8.401 15.361c.323.59.808 1.075 1.398 1.398l15.361 8.401c2.439 1.334 2.439 4.837 0 6.17l-15.361 8.401a3.521 3.521 0 0 0-1.398 1.398l-8.401 15.361c-1.334 2.439-4.837 2.439-6.17 0l-8.401-15.361a3.521 3.521 0 0 0-1.398-1.398l-15.361-8.401c-2.439-1.334-2.439-4.837 0-6.17l15.361-8.401a3.521 3.521 0 0 0 1.398-1.398l8.401-15.361c1.334-2.439 4.836-2.439 6.17 0z" data-original="#ffe177"/><path fill="#ffd15b" d="m387.321 62.476-10.738-5.873a3.616 3.616 0 0 1-.753.553l-15.361 8.401a3.521 3.521 0 0 0-1.398 1.398l-8.401 15.361a3.603 3.603 0 0 1-.552.753l5.873 10.738c1.334 2.439 4.837 2.439 6.171 0l8.401-15.361a3.521 3.521 0 0 1 1.398-1.398l15.362-8.401c2.437-1.334 2.437-4.837-.002-6.171z" data-original="#ffd15b"/></g></svg>